<svg width="16" height="16" viewBox="0 0 16 16" fill="none" xmlns="http://www.w3.org/2000/svg">
<path d="M0.799988 2.33338C0.799988 1.92672 0.961532 1.5367 1.24909 1.24915C1.53664 0.961593 1.92666 0.800049 2.33332 0.800049H4.84799C5.00883 0.800169 5.16556 0.850873 5.296 0.944985C5.42643 1.0391 5.52396 1.17185 5.57479 1.32445L6.72325 4.76908C6.78144 4.94414 6.77456 5.13431 6.70387 5.30471C6.63318 5.4751 6.50341 5.6143 6.33839 5.69674L4.60802 6.56308C5.4562 8.44029 6.95974 9.94381 8.83695 10.792L9.70327 9.06165C9.78575 8.89661 9.92495 8.76685 10.0953 8.69613C10.2657 8.62549 10.4559 8.61861 10.6309 8.67677L14.0756 9.82525C14.2283 9.87613 14.3612 9.97373 14.4553 10.1044C14.5494 10.2349 14.6 10.3918 14.6 10.5528V13.0667C14.6 13.4734 14.4385 13.8634 14.1509 14.1509C13.8633 14.4385 13.4733 14.6 13.0666 14.6H12.3C5.94892 14.6 0.799988 9.45109 0.799988 3.10005V2.33338Z" stroke="#FFC94F" stroke-width="2" stroke-linecap="round" stroke-linejoin="round"/>
</svg>
